<?xml version="1.0" encoding="UTF-8" standalone="no"?>
<!-- Generator: Adobe Illustrator 18.0.0, SVG Export Plug-In . SVG Version: 6.00 Build 0)  -->

<svg
   xmlns:dc="http://purl.org/dc/elements/1.1/"
   xmlns:cc="http://creativecommons.org/ns#"
   xmlns:rdf="http://www.w3.org/1999/02/22-rdf-syntax-ns#"
   xmlns:svg="http://www.w3.org/2000/svg"
   xmlns="http://www.w3.org/2000/svg"
   xmlns:sodipodi="http://sodipodi.sourceforge.net/DTD/sodipodi-0.dtd"
   xmlns:inkscape="http://www.inkscape.org/namespaces/inkscape"
   version="1.1"
   id="Слой_2"
   x="0px"
   y="0px"
   viewBox="0 245 1261.9893 352.17642"
   enable-background="new 0 245 1590 720"
   xml:space="preserve"
   sodipodi:docname="evolution.svg"
   inkscape:version="0.92.2 5c3e80d, 2017-08-06"
   width="1261.9893"
   height="352.17642"><metadata
     id="metadata3785"><rdf:RDF><cc:Work
         rdf:about=""><dc:format>image/svg+xml</dc:format><dc:type
           rdf:resource="http://purl.org/dc/dcmitype/StillImage" /><dc:title></dc:title></cc:Work></rdf:RDF></metadata><defs
     id="defs3783"><linearGradient
       id="linearGradient3199"><stop
         id="stop3201"
         offset="0"
         style="stop-color:#a3b0d8;stop-opacity:1;" /><stop
         id="stop3203"
         offset="1"
         style="stop-color:#7688c4;stop-opacity:1;" /></linearGradient><filter
       id="filter8857"
       height="1.0577668"
       y="-0.028883385"
       width="1.2839019"
       x="-0.14195096"
       inkscape:collect="always"><feGaussianBlur
         id="feGaussianBlur8859"
         stdDeviation="2.3701044"
         inkscape:collect="always" /></filter><filter
       id="filter8877"
       inkscape:collect="always"><feGaussianBlur
         id="feGaussianBlur8879"
         stdDeviation="1.6170501"
         inkscape:collect="always" /></filter><filter
       id="filter9871"
       height="1.0542439"
       y="-0.027121933"
       width="1.417002"
       x="-0.20850103"
       inkscape:collect="always"><feGaussianBlur
         id="feGaussianBlur9873"
         stdDeviation="0.69332087"
         inkscape:collect="always" /></filter><filter
       id="filter10860"
       height="1.0596896"
       y="-0.029844826"
       width="1.2450974"
       x="-0.12254869"
       inkscape:collect="always"><feGaussianBlur
         id="feGaussianBlur10862"
         stdDeviation="0.28967779"
         inkscape:collect="always" /></filter><filter
       id="filter11851"
       height="1.060884"
       y="-0.030442012"
       width="1.2268261"
       x="-0.11341306"
       inkscape:collect="always"><feGaussianBlur
         id="feGaussianBlur11853"
         stdDeviation="0.27033207"
         inkscape:collect="always" /></filter></defs><sodipodi:namedview
     pagecolor="#ffffff"
     bordercolor="#666666"
     borderopacity="1"
     objecttolerance="10"
     gridtolerance="10"
     guidetolerance="10"
     inkscape:pageopacity="0"
     inkscape:pageshadow="2"
     inkscape:window-width="3840"
     inkscape:window-height="2036"
     id="namedview3781"
     showgrid="false"
     inkscape:zoom="1.145283"
     inkscape:cx="1086.3892"
     inkscape:cy="90.852274"
     inkscape:window-x="0"
     inkscape:window-y="2210"
     inkscape:window-maximized="1"
     inkscape:current-layer="Слой_2" /><path
     d="m 377.04305,444.05967 c -0.72,-2.88 -2.352,-2.544 -4.56,-4.752 -1.2,-1.2 -2.304,-1.632 -2.688,-3.264 -0.432,-1.92 1.008,-2.544 1.2,-3.888 0.336,-3.12 -3.36,-5.28 -5.808,-6.24 -2.928,-1.152 -4.944,-2.976 -8.064,-3.84 -6.432,-1.776 -12.96,-0.768 -18.912,2.688 -2.688,1.536 -4.656,2.544 -7.776,2.736 -3.504,0.24 -6.72,0.528 -10.032,1.44 -6.672,1.968 -11.376,4.656 -17.28,8.016 -6.672,3.84 -30.288,26.016 -35.808,31.536 -3.072,3.12 -6.192,6 -8.976,9.264 -1.824,2.16 -11.616,14.736 -14.016,18.048 -2.496,3.36 -2.784,3.504 -3.696,7.68 -0.912,3.984 1.92,11.184 4.32,13.872 2.496,2.736 5.52,5.088 8.016,7.584 2.208,2.208 9.6,10.752 7.824,13.488 -0.816,1.248 -5.856,2.496 -7.488,3.504 -2.784,1.776 -12.144,9.792 -14.256,11.952 -2.16,2.208 -19.92,17.568 -17.472,22.368 0.816,1.728 4.464,3.936 6,5.472 2.4,2.352 3.12,4.704 4.128,7.632 2.352,6.432 9.168,5.424 14.88,5.424 2.208,0 8.544,0.624 9.84,-1.584 2.208,-3.744 -4.512,-4.368 -6.48,-4.752 -2.736,-0.528 -5.136,-1.44 -7.056,-3.888 -1.728,-2.16 -2.112,-4.944 -3.84,-7.2 -2.304,-2.976 -2.304,-4.368 1.152,-6.096 2.88,-1.44 5.808,-2.592 8.544,-3.84 5.472,-2.496 10.992,-5.424 15.84,-9.072 4.896,-3.696 10.896,-6.624 15.024,-11.616 3.888,-4.752 4.176,-11.136 5.616,-16.608 -1.152,3.264 4.848,10.416 4.848,14.016 0,4.128 3.12,30.768 3.792,32.496 1.152,2.976 -1.2,7.104 0,10.128 1.344,3.36 4.512,2.304 7.68,2.88 3.072,0.576 6.48,0.624 9.6,0.96 1.776,0.144 3.648,-0.24 5.136,0.336 1.392,0.528 23.088,-0.336 15.888,-6.096 -2.016,-1.632 -6.432,-1.44 -8.784,-2.736 -1.536,-0.816 -2.592,-2.16 -4.32,-2.784 -1.584,-0.576 -3.072,-0.576 -4.56,-1.008 -0.336,-1.008 -0.768,-1.824 -0.96,-2.88 -1.008,-6.912 0.528,-11.712 -0.384,-18.336 v 0 c 1.968,-4.944 1.248,-15.12 1.248,-17.616 0,-2.112 0,-4.176 0,-6.336 0,-2.208 -0.048,-1.968 1.152,-3.888 1.536,-2.304 3.504,-11.904 3.504,-14.688 3.648,2.88 15.216,27.792 16.032,33.792 0.768,5.136 5.664,7.824 5.088,13.488 -0.24,2.688 -1.536,4.656 -1.248,7.632 0.24,2.736 0.624,5.472 0.336,8.4 -0.96,-0.192 -1.44,-0.96 -2.4,-1.152 -0.576,1.824 0.72,6.864 2.016,7.968 1.584,1.344 6,1.536 7.968,1.2 0.048,-0.624 5.52,-4.56 5.52,-12.144 0,-7.056 -1.104,-13.344 -2.88,-19.824 -0.912,-3.12 -0.624,-6.432 -1.296,-9.744 -0.576,-2.928 -1.2,-6.048 -2.16,-8.88 -2.016,-6.048 -4.08,-11.52 -4.752,-18.144 -0.624,-6.432 -1.296,-13.488 -2.88,-19.824 -0.816,-3.312 -0.624,-6.816 -1.248,-10.128 -0.576,-3.456 0.192,-7.104 -0.384,-10.56 -0.24,-1.44 -1.44,-2.544 -1.2,-4.128 0.192,-1.104 6.864,-7.968 8.448,-10.56 1.584,-2.592 1.92,-5.424 4.896,-6.912 2.928,-1.536 5.904,0.24 8.976,0.528 3.456,0.24 6.864,0.576 10.128,0.048 1.632,-0.24 3.504,-0.144 4.944,-1.008 1.248,-0.768 2.112,-2.304 3.36,-2.928 1.152,-1.872 1.152,-5.904 0.72,-7.632 z m -82.992,60.72 c 1.632,-1.344 3.696,-2.016 5.424,-3.264 1.536,-1.104 3.168,-2.784 4.896,-3.456 0.624,3.12 1.92,4.848 0.192,8.016 -1.392,2.496 -1.776,4.272 -2.16,6.912 -0.528,-0.816 -1.152,-1.632 -2.016,-2.4 -2.16,-1.776 -3.936,-4.512 -6.336,-5.808 z"
     id="path3770"
     inkscape:connector-curvature="0"
     style="fill:#000000;stroke-width:0.48000002" /><path
     d="m 467.33105,335.91567 c -6.24,0.576 -10.032,6.432 -13.44,11.088 -3.504,4.896 -4.368,10.224 -7.2,15.648 -2.544,4.944 -6.288,9.408 -11.376,11.808 -4.896,2.352 -10.368,3.84 -13.152,9.168 -1.44,2.784 -1.968,6.096 -2.4,8.976 -0.576,3.456 -1.248,5.904 -2.736,9.216 -2.352,5.328 -11.76,20.112 -12.96,22.848 -1.2,2.592 -3.12,4.848 -4.128,7.584 -2.304,6.096 1.632,12.576 3.264,18.576 1.824,6.864 5.088,8.832 5.088,8.832 0,0 -10.56,18.576 -1.2,31.968 2.928,3.936 3.744,5.904 4.128,8.064 0.576,2.976 7.44,19.248 10.416,23.664 1.92,2.736 3.984,4.848 0.192,6.864 -2.544,1.392 -4.512,2.4 -6.864,4.464 -2.352,2.016 -4.944,3.168 -7.584,4.704 -2.736,1.584 -5.52,4.272 -8.832,4.944 -5.664,1.2 -14.64,-1.92 -16.56,5.472 -1.632,6.24 0,14.448 0.528,20.784 0.432,5.52 -1.392,15.216 5.136,17.232 1.44,0.432 2.976,0.576 4.56,0.96 1.248,0.336 3.552,1.008 4.704,1.152 1.104,0.144 3.696,0.144 4.56,-0.768 1.44,-1.536 -0.144,-1.728 -0.768,-3.504 -1.104,-3.072 -0.528,-6.672 -1.776,-9.6 -1.104,-2.496 -2.688,-4.944 -3.36,-7.584 -0.528,-1.824 -2.016,-8.256 -0.96,-9.84 1.248,-1.92 7.68,-2.496 9.84,-2.88 12.336,-2.304 25.392,-6.48 35.808,-13.632 5.52,-3.744 4.368,-11.568 3.12,-16.848 -0.72,-2.928 -3.648,-14.064 -4.32,-16.704 -0.816,-3.552 -1.392,-13.536 -1.248,-15.264 0.192,-2.4 -0.144,-3.264 2.4,-2.4 2.304,0.768 4.848,3.072 6.528,4.848 2.016,2.16 10.176,9.936 12.288,11.808 2.4,2.16 5.088,3.696 6.624,6.432 2.928,5.136 0.048,13.44 -1.728,18.576 -2.016,6.048 -1.296,13.488 -0.816,19.824 0.528,6.624 0.336,13.344 0.816,20.304 0.192,2.88 -0.528,7.824 0.528,10.512 1.152,3.072 4.464,3.888 7.104,4.272 1.44,0.24 6.288,-1.584 8.016,-1.632 2.736,-0.144 6.096,2.112 8.832,2.544 2.784,0.432 19.2,1.296 18.192,-4.272 -0.336,-1.776 -5.04,-3.648 -6.432,-4.128 -3.168,-1.104 -6.24,-1.536 -9.6,-1.776 -5.04,-0.384 -13.056,-5.712 -12.576,-11.424 0.528,-6.048 2.208,-12.672 3.744,-18.576 1.632,-6.432 1.344,-13.68 2.4,-20.304 0.528,-3.072 0.528,-6.48 1.296,-9.408 0.816,-3.12 2.016,-6.288 1.776,-9.6 -1.008,-13.152 -12.384,-18.432 -20.16,-27.984 -3.84,-4.656 -13.632,-15.504 -13.92,-16.464 -0.624,-2.016 0.192,-6.336 0.768,-8.352 0.768,-2.688 1.824,-5.28 3.072,-7.872 2.352,-5.28 5.04,-9.936 8.016,-14.88 0.72,-1.104 0.96,-2.496 2.112,-3.312 1.728,-1.296 1.92,-0.528 3.696,-0.048 3.504,0.816 14.304,6.432 16.896,7.584 3.456,1.44 5.472,1.44 7.584,5.088 1.776,3.072 1.968,5.856 2.544,9.264 0.192,1.296 0.192,3.984 2.112,3.84 2.352,-0.24 0.72,-2.496 0.816,-3.84 0.528,-4.752 5.088,-2.016 6.288,0.816 1.152,2.88 -2.208,5.856 -2.976,8.4 -1.968,-0.048 -1.92,1.728 -1.2,2.976 1.008,1.92 1.584,1.44 3.072,0.96 2.688,-0.96 4.512,-3.84 6.096,-6.096 1.536,-2.208 2.736,-4.512 3.552,-7.056 1.152,-3.504 -0.048,-5.328 -1.776,-8.448 -0.624,-1.2 -1.104,-2.592 -1.632,-3.792 -1.008,-2.016 -1.44,-2.208 -3.36,-2.928 -2.688,-1.008 -5.328,-2.4 -7.584,-4.128 -4.56,-3.456 -9.264,-6.816 -13.92,-10.128 -2.736,-1.968 -13.44,-6.624 -15.84,-9.408 1.392,-6 -0.816,-15.12 -1.776,-18.24 -1.008,-3.36 -1.776,-6.912 -3.12,-10.368 -1.392,-3.552 -1.008,-6.096 -0.24,-9.744 3.552,-0.24 6.048,1.392 9.216,2.496 2.736,0.96 7.248,1.44 10.176,1.248 4.656,-0.336 12.48,-4.32 12.672,-9.744 0.048,-2.352 -2.352,-6.288 -3.504,-8.448 -1.44,-2.736 -2.928,-4.704 -2.736,-7.872 0.048,-1.44 1.392,-2.304 0,-3.984 -1.152,-1.44 -7.968,-5.04 -9.792,-6.72 -1.584,-1.392 -3.456,-3.36 -5.136,-4.464 -2.448,-1.248 -9.888,-1.344 -9.888,-1.344 z"
     id="path3772"
     inkscape:connector-curvature="0"
     style="fill:#000000;stroke-width:0.48000002" /><path
     d="m 606.24305,402.63567 c 0.144,-3.456 2.208,-8.64 2.544,-12.672 0.384,-4.752 0.528,-8.64 -0.96,-12.96 -2.688,-7.968 -6.48,-16.464 -5.712,-25.392 3.072,-0.24 6.048,-0.624 9.168,-0.384 3.168,0.24 7.632,-7.44 6.864,-10.608 -0.72,-2.88 0.432,-5.328 0.432,-8.448 0,-2.88 -0.72,-4.896 -1.968,-7.296 -1.152,-2.112 -2.016,-4.464 -4.176,-5.472 -2.544,-1.2 -5.712,-0.912 -8.592,-1.728 -2.88,-0.768 -12.192,-1.152 -12.192,-1.152 -5.856,0.048 -10.32,6.24 -13.104,10.56 -3.648,5.52 -8.16,14.64 -11.568,20.4 -2.928,4.944 -6.288,4.944 -9.408,9.648 -1.824,2.736 -1.104,5.856 -1.392,9.168 -0.336,3.504 -0.912,6.24 -2.016,9.36 -2.112,5.808 -2.976,12.288 -3.504,18.528 -0.24,3.552 -1.584,17.088 -2.016,20.352 -0.912,6.288 4.944,11.376 2.88,17.232 -2.016,5.712 -6,12.528 -5.904,18.576 0,3.072 0.72,6.624 2.112,9.264 1.344,2.544 3.744,4.464 5.424,6.72 3.504,5.04 1.824,13.92 1.344,19.824 -0.576,7.056 0.528,14.352 -1.296,21.12 -1.344,5.04 -7.056,9.264 -11.424,12.144 -12.576,8.16 -13.68,27.648 -16.464,33.792 -1.2,2.688 -2.736,5.088 -3.84,8.016 -0.912,2.496 -0.624,2.976 -2.736,4.848 -2.016,1.776 -6.816,6.096 -3.792,9.072 2.352,2.304 5.424,2.304 8.352,3.072 2.784,0.72 6.096,1.776 8.016,4.272 1.968,2.544 2.784,6 5.904,7.584 2.784,1.44 6.912,1.296 10.032,1.776 1.44,0.24 3.12,0.768 4.656,0.624 1.584,-0.144 3.12,-1.296 4.656,-1.632 0.144,-4.944 -8.592,-8.784 -11.616,-11.904 -3.888,-3.888 -10.32,-6.72 -9.792,-12.96 0.24,-3.168 0.816,-6.096 2.928,-8.352 2.16,-2.208 15.792,-18.048 18.24,-20.304 5.616,-5.04 11.904,-10.368 15.024,-17.088 1.776,-3.84 2.784,-8.352 3.504,-12.528 0.624,-3.984 1.296,-9.024 3.072,-12.576 1.92,1.776 4.512,3.264 6.192,5.52 1.776,2.4 9.6,12.576 10.224,15.072 0.336,1.392 0.048,3.36 0.336,4.704 0.24,1.584 0.624,2.976 1.008,4.56 1.584,6.48 0.576,13.824 2.4,20.304 1.632,5.808 3.936,11.28 6.48,16.704 2.592,5.856 5.136,10.128 5.808,16.608 0.624,6.432 1.392,13.152 9.36,12.672 1.152,-0.048 2.592,-1.104 3.696,-1.392 1.536,-0.432 3.072,-0.816 4.752,-1.152 3.312,-0.576 5.136,0.912 8.4,1.632 5.232,1.248 13.872,0 16.8,-5.04 2.352,-4.128 0.576,-6.24 -3.696,-5.904 -3.36,0.192 -5.904,0.144 -9.264,-0.528 -2.928,-0.576 -5.28,-3.264 -7.68,-4.464 -1.44,-0.72 -3.12,-1.296 -4.56,-1.776 -1.152,-0.384 -3.264,-0.768 -4.128,-1.344 -2.304,-1.584 -1.776,-6.336 -2.208,-8.784 -0.576,-3.168 -1.968,-15.984 -2.544,-19.008 -0.624,-3.504 -1.2,-7.104 -2.016,-10.56 -1.536,-6.48 -1.824,-12.96 -2.592,-19.824 -0.336,-2.784 -0.528,-5.712 -1.776,-8.352 -1.392,-2.88 -3.744,-5.664 -4.944,-8.544 -2.304,-5.616 -5.856,-10.704 -8.784,-16.08 -1.344,-2.4 -3.072,-4.56 -4.656,-6.864 -1.392,-2.016 -3.888,-4.464 -4.656,-6.72 -1.008,-3.168 1.44,-6.864 2.544,-10.032 1.2,-3.456 6.912,-23.664 7.584,-25.248 0.624,-1.44 0.912,-3.36 1.632,-4.704 3.744,2.592 6.864,6.432 9.072,10.608 2.496,4.656 6.624,8.736 10.368,12.48 1.584,1.584 3.456,3.696 4.512,5.616 0.912,1.44 2.16,6.672 1.728,8.448 -0.336,1.2 -1.344,1.968 -1.728,3.36 -0.24,0.96 0,3.744 -0.528,4.512 -0.816,1.2 -2.208,1.104 -3.36,0.576 -1.824,-0.816 -1.2,-1.2 -2.112,-2.976 -1.344,-0.384 -2.112,0.528 -3.264,0.816 0,2.88 1.728,5.328 3.84,7.44 1.536,1.44 4.08,4.704 6.24,5.232 0.816,0.192 4.08,-0.336 5.088,-0.528 1.776,-0.24 1.824,-0.192 3.072,-2.4 1.344,-2.4 2.592,-5.472 3.264,-8.064 1.44,-6 -0.576,-13.296 -2.976,-18.576 -2.4,-5.328 -4.32,-10.512 -7.584,-15.648 -3.264,-5.088 -6.048,-10.944 -9.84,-15.504 -1.92,-2.304 -10.32,-15.024 -10.896,-16.608 v -2.736 z"
     id="path3774"
     inkscape:connector-curvature="0"
     style="fill:#000000;stroke-width:0.48000002" /><path
     d="m 768.38706,409.40367 c 2.352,-0.048 2.352,0.048 3.792,-2.112 1.776,-2.592 13.152,-18.048 15.984,-23.712 2.88,-5.808 4.08,-11.088 5.136,-17.232 0.576,-3.168 1.008,-4.752 2.688,-7.392 l 20.97598,10.8 2.928,-5.472 -22.17598,-10.944 c -0.048,-1.104 -0.24,-2.208 -0.624,-3.456 -0.576,-2.016 -2.016,-5.712 -3.888,-7.056 -1.632,-1.2 -6.72,-2.784 -8.448,-1.824 -2.304,-0.768 -1.392,-2.544 -3.744,-1.728 -2.016,0.72 -2.736,2.4 -3.264,4.176 l -21.792,-10.752 c 1.392,-2.88 2.112,-3.936 5.328,-3.888 2.976,0.048 5.712,0.432 6.72,-2.16 0.576,-1.344 0.384,-2.928 0.96,-4.176 0.576,-1.248 1.392,-2.112 1.92,-3.36 0.96,-2.544 1.2,-5.28 1.392,-8.016 0.192,-3.168 -1.44,-5.28 -1.632,-7.968 4.08,0.336 4.176,-3.648 2.976,-6.096 -1.584,-3.168 -0.528,-5.808 -1.344,-9.216 -1.2,-4.944 -10.512,-7.248 -14.832,-7.584 -6.096,-0.528 -13.488,-2.208 -18.432,2.592 -4.32,4.272 -9.216,9.6 -10.128,15.504 -0.576,3.552 -0.144,6.864 -1.296,10.224 -0.96,2.928 -3.16801,5.04 -4.36801,7.824 v 0.048 l -25.632,-12.672 -0.432,-4.176 -27.84,-8.016 v 2.112 l 53.232,27.408 c 0.24,1.392 1.392,2.352 1.536,3.504 0.384,2.928 -3.36,4.128 -5.088,5.712 -5.04,4.56 -3.984,11.568 -4.512,17.856 -0.528,6.432 -3.936,37.44 -4.272,40.944 -0.576,7.2 0.432,13.824 0.432,21.12 0,6.624 -3.264,12.144 -3.84,18.576 -0.624,7.2 2.928,13.152 6.048,19.344 1.536,2.976 4.704,4.944 5.808,8.16 0.96,2.736 -1.248,26.352 -1.776,29.568 -0.528,3.264 -1.2,6.432 -1.92,9.36 -0.816,3.264 -1.968,4.128 -4.656,6.336 -4.56,3.888 -8.448,7.2 -12,12 -1.968,2.688 -24,29.232 -26.016,29.712 -0.048,0.24 -0.144,0.432 -0.192,0.72 -1.248,0.432 -1.248,1.584 -2.352,2.304 -1.104,0.768 -2.592,0.528 -3.792,1.296 -2.976,1.92 -2.592,5.424 -0.816,8.256 1.392,2.208 3.936,3.696 5.712,5.664 1.968,2.208 3.648,3.648 5.28,6.096 2.4,3.744 4.368,8.784 8.352,11.184 2.496,1.536 4.896,2.736 7.632,3.264 2.304,0.432 6.432,1.728 8.784,1.2 0.624,-2.928 -2.112,-6.48 -4.08,-8.4 -2.688,-2.688 -4.56,-3.984 -6.096,-7.632 -1.392,-3.36 -2.688,-5.52 -2.976,-9.216 -0.144,-1.536 -0.048,-2.688 0.048,-4.32 0.192,-2.4 -0.048,-2.736 1.248,-4.32 2.016,-2.4 25.968,-21.792 27.984,-23.856 2.736,-2.736 10.60801,-10.752 11.71201,-12.336 1.392,-2.016 2.208,-2.736 4.272,-3.744 2.88,-1.536 5.664,-2.688 7.872,-5.616 1.152,-1.44 2.016,-10.176 3.072,-11.712 1.728,0.816 3.696,6.192 4.56,8.064 1.104,2.304 3.168,6.624 3.36,8.832 0.192,2.496 -2.016,6.816 -2.784,9.264 -0.96,3.12 -1.776,5.664 -1.776,9.216 0,6.816 7.2,23.232 10.416,52.32 0.192,1.824 0.432,4.752 1.344,6.336 0.816,1.392 13.488,3.168 15.216,3.36 1.776,0.192 3.696,-0.192 5.472,0 3.168,0.336 6.432,0.72 9.744,0.432 3.12,-0.24 6.336,-1.296 9.36,-2.016 2.592,-0.624 6.048,-0.96 7.824,-3.168 2.78398,-3.456 -1.104,-5.424 -4.128,-5.424 -3.456,0 -5.664,0.144 -8.928,-0.816 -2.592,-0.768 -4.704,-2.496 -7.248,-3.312 -3.168,-1.104 -6.528,-1.008 -9.6,-2.544 -6.288,-3.12 -3.648,-54.24 -4.176,-57.504 -1.008,-6.048 1.392,-12.72 -0.528,-19.008 -0.912,-2.928 -10.224,-35.376 -10.896,-38.88 -1.296,-6.528 -1.584,-13.536 -2.592,-20.16 -0.432,-2.928 4.656,-23.856 5.232,-27.024 1.536,-0.384 2.736,-0.624 4.56,-0.672 z m -14.064,-69.216 c -0.432,-0.96 -0.528,-1.92 -0.384,-2.88 l 22.512,11.568 c -0.24,2.544 0,4.944 1.104,7.824 0.576,1.584 1.392,3.312 2.304,4.896 1.536,2.736 1.344,2.4 -0.624,4.704 -2.688,3.12 -4.704,7.2 -7.008,10.128 -0.24,-2.16 -3.12,-2.976 -3.504,-5.04 -0.336,-1.92 -8.544,-24 -9.792,-25.632 -1.392,-1.728 -3.648,-3.552 -4.608,-5.568 z"
     id="path3776"
     inkscape:connector-curvature="0"
     style="fill:#000000;stroke-width:0.48000002" /><path
     d="m 943.97104,594.73167 c 5.52005,1.824 12.72005,-0.384 15.69605,-5.136 4.512,-7.248 -14.016,-5.856 -21.36005,-8.256 -7.584,-2.544 -9.792,-11.952 -11.616,-18.768 -7.44,-27.168 -4.128,-42.672 -4.08,-52.224 0.048,-17.808 -11.808,-33.888 -13.344,-51.312 -0.192,-2.352 -0.624,-4.464 -0.144,-6.672 0.528,-2.112 3.072,-15.504 4.08,-20.112 1.92,-8.64 5.616,-16.896 8.352,-25.44 0.72,-2.208 1.824,-6.624 2.784,-8.736 9.552,1.152 15.6,2.736 23.32805,5.328 4.176,1.44 9.072,3.648 13.248,5.088 4.368,1.536 6.288,4.128 11.28,3.36 4.08,-0.576 4.512,-2.928 6.192,-7.632 1.344,-3.744 5.904,-4.176 0.432,-8.592 -2.208,-1.776 -2.16,-1.728 -4.944,-2.4 -0.816,-0.192 -5.088,0.048 -5.904,-0.336 -1.536,-0.72 2.304,-0.72 1.776,-1.776 -2.016,-4.128 -3.168,-0.576 -8.208,0.384 -5.28,1.008 -12.336,-4.128 -17.04005,-5.328 -5.28,-1.344 -12.336,-4.176 -17.808,-5.424 0.432,-4.944 -0.624,-9.264 -0.624,-14.544 0,-5.664 -1.776,-20.352 -2.688,-23.088 -0.768,-2.208 -1.584,-4.368 -2.784,-6.336 -1.392,-2.304 -3.456,-4.08 -5.232,-6.048 -1.824,-2.016 0,-10.128 0,-10.128 5.04,0.048 9.072,7.248 11.376,-1.008 0.528,-1.776 0.768,-4.896 1.296,-6.672 0.24,-0.96 0.576,-3.264 1.2,-4.128 0.72,-1.008 2.208,-0.432 2.544,-1.632 0.576,-2.208 -2.88,-6.672 -2.88,-10.416 0,-3.504 2.688,-7.44 1.728,-11.52 -1.728,-7.056 -8.544,-13.872 -16.368,-16.368 -7.056,-2.208 -17.28,1.152 -21.552,7.968 -2.016,3.312 -3.504,7.584 -3.792,11.28 -0.384,4.704 1.392,8.4 1.728,12.96 0.336,5.04 -1.008,6.336 -4.368,9.744 -2.928,2.976 -6.336,5.616 -9.264,8.16 -5.664,4.896 -10.56,12.192 -13.488,19.248 -3.648,8.736 -2.688,18.432 -2.688,27.6 0,4.896 0.768,9.408 1.152,14.064 0.384,4.656 0.816,22.944 -0.576,27.264 -1.392,4.368 -3.648,7.872 -5.04,12.096 -2.304,6.72 -0.912,18.384 3.984,24.24 8.16,9.648 8.352,8.16 7.2,22.512 -0.72,8.736 -1.344,17.808 -2.784,26.448 -0.72,4.128 -0.336,7.296 -3.504,10.56 -3.072,3.072 -6.48,6.048 -9.84,8.736 -2.976,2.4 -17.04,24.048 -31.68,37.008 -2.4,2.112 -7.392,3.984 -7.872,7.872 -0.432,3.312 4.704,7.68 6.672,10.176 2.352,3.072 4.512,5.472 7.008,8.256 2.496,2.784 3.552,5.616 5.616,8.448 2.688,3.696 19.248,9.744 17.184,2.544 -0.912,-3.072 -5.808,-7.2 -7.872,-9.552 -2.976,-3.36 -4.176,-5.28 -4.896,-9.744 -0.528,-3.312 -1.584,-8.448 0.384,-11.376 1.776,-2.592 40.464,-35.376 42.24,-36.576 2.592,-1.776 5.088,-4.752 7.296,-6.72 3.504,-3.12 3.696,-5.472 4.176,-9.936 2.592,1.92 4.848,5.232 6.624,7.824 2.736,3.888 1.2,7.824 1.152,12.384 -0.192,9.552 2.592,16.368 5.616,24.72 2.784,7.824 4.656,15.648 6.72,23.664 1.008,3.84 2.112,8.16 2.688,11.952 0.528,3.456 -0.192,10.368 2.352,11.568 8.016,3.6 15.648,-4.032 29.136,0.48 z"
     id="path3778"
     inkscape:connector-curvature="0"
     style="fill:#000000;stroke-width:0.48000002" /><g
     id="layer1"
     inkscape:label="Layer 1"
     transform="matrix(-0.52716543,0,0,0.52716543,235.64391,456.19083)"><path
       sodipodi:nodetypes="czccczzssczscsccczzzzszzsccczccczzzzszzczzszcccszzzzzzzz"
       id="path7075"
       d="m 88.38774,251.34392 c -7.02807,0.86758 -12.87713,-0.43627 -19.07586,-9.07162 -6.35571,-8.85405 -5.30562,-28.28681 -4.98851,-42.24006 -0.68074,-19.9811 0.09771,-39.89745 2.09032,-59.77907 0.67454,-5.62667 9.55233,-52.075576 9.55233,-52.075576 0,0 3.42288,-14.66234 5.78812,-22.11036 2.36524,-7.44802 3.30644,-7.86493 5.3049,-9.96948 1.78445,-1.87918 6.6342,-4.9438 16.3314,-6.74574 9.27752,-1.72396 16.33139,-2.77326 21.8779,-3.0814 5.54652,-0.30814 35.01137,-0.18321 35.01137,-0.18321 17.40313,-10.25385 25.16671,-13.88183 33.26273,-16.45632 8.09602,-2.57449 13.45991,-2.69622 19.54567,-0.61628 6.08576,2.07994 7.29595,5.826007 10.47675,9.603197 18.40926,-4.181155 41.45481,-5.562062 64.63585,-4.339389 23.18104,1.222673 49.57733,13.149856 67.95801,26.007663 l 32.87707,0.466899 28.38216,0.0084 c 0,0 11.66842,-6.85402 14.88253,-8.1699 3.05656,-1.25138 7.55945,-2.11326 9.25212,-0.68293 1.69267,1.43033 0.79133,2.98979 0.17505,5.76304 -0.61628,2.77325 2.33538,2.56346 2.27352,7.20398 -0.0521,3.90782 -2.44216,3.20214 -3.48213,4.78136 -1.03997,1.57921 0.26302,3.80034 -0.68195,5.17888 -0.94498,1.37854 -2.64425,1.3608 -4.5636,1.34292 -1.91802,-0.01787 -4.20558,-0.49333 -6.05441,-1.41775 -3.69767,-1.84884 -9.39428,-4.04754 -9.39428,-4.04754 l -30.17274,-0.40813 -23.89339,0.300258 c 9.26308,13.048101 13.51306,28.347235 13.25198,48.360228 -0.26108,20.013 -7.62353,31.98763 -16.88299,49.32789 l 0.12493,29.88953 0.67455,15.40698 c 0.81277,8.95947 0.75312,22.90185 -0.24147,26.80814 -0.9946,3.90629 -2.22982,5.39244 -8.16151,8.31977 -5.93169,2.92732 -7.8596,2.78159 -16.02326,3.38953 -8.16366,0.60794 -11.00278,0.0669 -16.63137,-0.95775 -5.62859,-1.02466 -10.34958,-3.2292 -11.77574,-7.84519 -0.81224,-2.62893 -4.69666,-0.79721 -8.87777,-2.59822 -4.10371,-1.76767 -8.99088,-4.48526 -10.46836,-8.96099 -1.45848,-4.41814 -0.41357,-16.33449 -0.9328,-25.68071 0,0 -20.70485,1.58142 -30.5567,1.48982 -9.76025,-0.0916 -29.68297,-2.52137 -31.42769,-5.38923 -1.74472,-2.86786 -0.82462,10.57894 -0.74889,16.49088 0.0756,5.90527 0.76295,22.31972 -1.26688,34.53286 -2.03497,12.24407 -27.08548,11.10144 -39.22659,11.24411 -11.27078,0.30527 -21.98931,-9.19706 -20.95349,-13.66651 l -0.0916,-6.32945 c 0,0 -5.76305,-1.26567 -8.22816,-2.49822 -2.46512,-1.23256 -8.85486,-4.82475 -9.86047,-8.6363 -0.99948,-3.78832 0.46214,-35.57926 0.30814,-40.97417 -0.154,-5.30331 -0.24465,-7.01178 -0.92442,-10.47674 -0.68294,-3.48114 -7.46145,-23.07744 -16.9795,-24.44174 -10.17221,-1.45807 -18.98541,2.19077 -26.5728,10.62634 -7.58739,8.43556 -11.57339,20.53923 -12.06832,30.43236 -0.49492,9.89314 -0.94579,19.03181 0.23183,28.30084 1.17761,9.26904 3.96648,23.70653 -3.06158,24.57411 z"
       style="opacity:1;fill:#7689c4;fill-opacity:1;fill-rule:evenodd;stroke:#000000;stroke-width:6;stroke-linecap:butt;stroke-linejoin:round;stroke-miterlimit:4;stroke-dasharray:none;stroke-opacity:1"
       inkscape:connector-curvature="0" /><path
       transform="matrix(2.2562088,0,0,0.6680672,-391.67172,80.268095)"
       style="fill:#43599d;fill-opacity:1;stroke:none;stroke-width:2.5;stroke-linejoin:round;stroke-miterlimit:4;stroke-opacity:1;filter:url(#filter9871)"
       d="m 310.05645,180.60455 c 1.89839,0.77499 0.98257,53.36875 0.98257,53.36875 0,4.92152 -2.64835,-0.41624 -4.75183,-0.41624 -2.10348,0 -3.24848,-4.22042 -3.24848,-9.14194 0,0 1.03721,-41.09308 -0.24775,-37.42162 -1.32265,3.77918 3.73715,-7.82934 7.26549,-6.38895 z"
       id="path10864"
       sodipodi:nodetypes="cczczc"
       inkscape:connector-curvature="0" /><path
       sodipodi:nodetypes="czczzzzzcscc"
       id="path8002"
       d="m 123.75763,155.22693 c 0,0 15.49484,-8.30314 18.96937,-16.26584 3.45022,-7.90698 4.16197,-20.76138 4.16197,-20.76138 0,0 -4.08876,1.08413 -6.11884,0 -2.03008,-1.08413 -4.00294,-3.58597 -2.00147,-4.33652 2.00147,-0.75055 6.42139,3.0856 10.00736,1.33431 3.58597,-1.75129 3.02839,-7.77073 4.33652,-8.33946 1.30813,-0.56873 1.64656,3.39591 0.89601,6.06454 -0.75055,2.66863 -3.89822,4.60997 -3.89822,4.60997 -1.17841,8.91403 -1.696,15.99513 -4.29192,23.48045 -2.97696,8.58406 -10.46505,16.40934 -10.46505,16.40934 z"
       style="opacity:1;fill:#000000;fill-opacity:1;fill-rule:evenodd;stroke:none;stroke-width:1px;stroke-linecap:butt;stroke-linejoin:miter;stroke-opacity:1"
       inkscape:connector-curvature="0" /><g
       id="g19698"><path
         style="fill:#000000;fill-opacity:1;stroke:none;stroke-width:4;stroke-linejoin:round;stroke-miterlimit:4;stroke-opacity:1"
         d="m 112.43344,84.076901 c -1.64251,1.138388 -4.49239,4.731188 -5.22646,6.573579 -0.73408,1.842391 -1.07222,4.087752 -0.48823,6.22452 1.18615,4.34002 6.8571,6.55369 12.65625,4.96875 5.79916,-1.58495 9.52991,-6.378736 8.34375,-10.71875 -1.18615,-4.340015 -6.82583,-6.584944 -12.625,-5 -0.78772,0.215288 -0.92947,0.254816 -1.63414,0.57981 0.24756,-0.599146 1.40973,-1.639262 2.57667,-2.3161 1.20001,-0.696018 5.05881,-2.07164 3.23006,-2.989429 -1.79352,-0.900111 -5.21125,1.553693 -6.8329,2.67762 z"
         id="path12849"
         sodipodi:nodetypes="czssssczzz"
         inkscape:connector-curvature="0" /><path
         id="path16735"
         d="m 125.1525,91.826763 c 0.85718,3.136317 -1.84834,6.611302 -6.0391,7.756668 -4.19076,1.145359 -8.28764,-0.47049 -9.14482,-3.606806 -0.85718,-3.136315 1.84835,-6.6113 6.0391,-7.756661 4.19078,-1.145363 8.28765,0.470484 9.14482,3.606799 z"
         style="fill:#ffffff;fill-opacity:1;stroke:none;stroke-width:4;stroke-linejoin:round;stroke-miterlimit:4;stroke-opacity:1"
         inkscape:connector-curvature="0" /><ellipse
         style="fill:#000000;fill-opacity:1;stroke:none;stroke-width:4;stroke-linejoin:round;stroke-miterlimit:4;stroke-dasharray:none;stroke-opacity:1"
         id="path16738"
         transform="matrix(0.7473413,-0.887047,0.887047,0.7473413,-53.557616,130.54761)"
         cx="119.74085"
         cy="94.830513"
         rx="4.6189528"
         ry="3.7391522" /><ellipse
         transform="matrix(0.2251241,-0.2672081,0.2672081,0.2251241,66.299713,104.12425)"
         id="path16740"
         style="fill:#ffffff;fill-opacity:1;stroke:none;stroke-width:4;stroke-linejoin:round;stroke-miterlimit:4;stroke-dasharray:none;stroke-opacity:1"
         cx="119.74085"
         cy="94.830513"
         rx="4.6189528"
         ry="3.7391522" /></g><path
       sodipodi:nodetypes="czszzz"
       id="rect16758"
       d="m 108.4965,67.578611 c 2.89383,-0.817841 6.65461,0.155529 9.82938,0.497691 3.17476,0.342162 5.97228,0.960293 5.97228,3.234987 0,2.274693 -7.43226,0.311055 -10.82476,0.746534 -3.3925,0.435479 -5.67612,2.417853 -7.46536,1.493072 -1.78923,-0.924781 -0.40537,-5.154443 2.48846,-5.972284 z"
       style="opacity:1;fill:#000000;fill-opacity:1;stroke:none;stroke-width:4;stroke-linejoin:round;stroke-miterlimit:4;stroke-opacity:1"
       inkscape:connector-curvature="0" /><path
       sodipodi:nodetypes="ccsccc"
       id="rect8881"
       d="m 166.07451,188.14468 -1.03549,41.31196 c 0,4.92152 -1.69342,8.8836 -3.7969,8.8836 -2.10348,0 -3.7969,-3.96208 -3.7969,-8.8836 0,0 -6.31364,-47.95934 -10.23984,-54.2206 -3.00343,-5.77047 18.49571,7.46294 18.86913,12.90864 z"
       style="fill:#43599d;fill-opacity:1;stroke:none;stroke-width:2.5;stroke-linejoin:round;stroke-miterlimit:4;stroke-opacity:1;filter:url(#filter9871)"
       inkscape:connector-curvature="0" /><rect
       rx="2.0529726"
       ry="2.0529726"
       y="179.3101"
       x="164.36224"
       height="67.437035"
       width="4.1059451"
       id="rect19668"
       style="opacity:1;fill:#000000;fill-opacity:1;stroke:none;stroke-width:4;stroke-linejoin:round;stroke-miterlimit:4;stroke-dasharray:none;stroke-opacity:1" /><path
       sodipodi:nodetypes="cccczc"
       id="rect19670"
       d="m 152.98,49.016109 13.84167,-8.744959 c 2.73644,-1.728836 5.98582,-1.936915 7.28562,-0.466539 l -12.57779,9.418386 c -4.72719,3.968448 -7.45987,7.592175 -10.27175,6.189979 -2.86331,-1.42784 -1.01419,-4.668029 1.72225,-6.396867 z"
       style="fill:#000000;fill-opacity:1;stroke:none;stroke-width:4;stroke-linejoin:round;stroke-miterlimit:4;stroke-opacity:1"
       inkscape:connector-curvature="0" /><path
       sodipodi:nodetypes="czzz"
       id="path20675"
       d="m 166.27907,188.75068 c -4.55753,0 -14.7783,-11.23095 -14.42672,-14.27799 0.33464,-2.90022 12.15799,6.83028 13.98053,8.03137 1.62092,1.06823 4.85499,6.24662 0.44619,6.24662 z"
       style="fill:#000000;fill-opacity:1;fill-rule:evenodd;stroke:none;stroke-width:1px;stroke-linecap:butt;stroke-linejoin:miter;stroke-opacity:1"
       inkscape:connector-curvature="0" /><path
       style="fill:#000000;fill-opacity:1;fill-rule:evenodd;stroke:none;stroke-width:1px;stroke-linecap:butt;stroke-linejoin:miter;stroke-opacity:1"
       d="m 225.41821,208.27309 c -1.53535,0.92894 -1.53852,0.70639 -1.65346,-1.84954 -0.0968,-2.15238 -1.10115,-4.94958 -2.65529,-8.14488 -1.93935,-3.98728 -1.66637,-8.22532 -0.14092,-8.50775 0.76646,-0.14191 2.622,1.44699 5.62355,6.44137 1.41817,2.35975 4.38147,4.63361 5.13473,4.75775 0.76527,0.12612 -4.73379,6.35024 -6.30861,7.30305 z"
       id="path21646"
       sodipodi:nodetypes="csszszz"
       inkscape:connector-curvature="0" /><path
       inkscape:transform-center-x="-1.4700359"
       sodipodi:nodetypes="czzz"
       id="path21648"
       d="m 165.87586,201.78594 c 2.36653,3.5378 15.87011,4.46404 17.63574,2.27021 1.68057,-2.08812 -9.48325,-3.60835 -11.524,-3.86692 -2.04559,-0.25919 -8.40103,-1.82565 -6.11174,1.59671 z"
       style="fill:#000000;fill-opacity:1;fill-rule:evenodd;stroke:none;stroke-width:1px;stroke-linecap:butt;stroke-linejoin:miter;stroke-opacity:1"
       inkscape:connector-curvature="0" /><path
       inkscape:transform-center-y="0.12003532"
       style="fill:#000000;fill-opacity:1;fill-rule:evenodd;stroke:none;stroke-width:1px;stroke-linecap:butt;stroke-linejoin:miter;stroke-opacity:1"
       d="m 165.57196,209.11277 c 0.97906,1.17374 14.99024,2.70765 15.16077,0.10431 0.12152,-2.61586 -17.20312,-3.62585 -15.16077,-0.10431 z"
       id="path21650"
       sodipodi:nodetypes="ccc"
       inkscape:transform-center-x="-1.4564345"
       inkscape:connector-curvature="0" /><path
       inkscape:transform-center-y="0.16420938"
       style="fill:#000000;fill-opacity:1;fill-rule:evenodd;stroke:none;stroke-width:1px;stroke-linecap:butt;stroke-linejoin:miter;stroke-opacity:1"
       d="m 310.35154,203.74729 c 2.09123,1.8042 10.04989,0.18154 10.77543,-1.49562 0.69058,-1.59635 -7.56672,-1.36546 -8.75258,-1.4807 -1.05468,-0.1025 -4.04584,1.231 -2.02285,2.97632 z"
       id="path21652"
       sodipodi:nodetypes="czzz"
       inkscape:transform-center-x="-0.95467443"
       inkscape:connector-curvature="0" /><path
       inkscape:transform-center-y="0.19158506"
       inkscape:transform-center-x="-0.9515249"
       sodipodi:nodetypes="czzz"
       id="path21654"
       d="m 310.93122,208.59176 c 2.12223,1.76763 10.05153,0.007 10.74786,-1.6824 0.66276,-1.6081 -7.58928,-1.23394 -8.77696,-1.32858 -1.0563,-0.0842 -4.02387,1.30103 -1.9709,3.01098 z"
       style="fill:#000000;fill-opacity:1;fill-rule:evenodd;stroke:none;stroke-width:1px;stroke-linecap:butt;stroke-linejoin:miter;stroke-opacity:1"
       inkscape:connector-curvature="0" /><path
       inkscape:transform-center-x="1.7620125"
       inkscape:transform-center-y="2.6050942"
       sodipodi:nodetypes="czzz"
       id="path21656"
       d="m 358.39836,177.06224 c 3.74207,-1.93195 6.23813,-11.67198 4.34984,-12.99003 -1.79734,-1.25451 -6.39692,8.44243 -7.26281,9.79329 -0.77013,1.20145 -0.707,5.06564 2.91297,3.19674 z"
       style="fill:#000000;fill-opacity:1;fill-rule:evenodd;stroke:none;stroke-width:1px;stroke-linecap:butt;stroke-linejoin:miter;stroke-opacity:1"
       inkscape:connector-curvature="0" /><path
       sodipodi:nodetypes="czzzz"
       id="rect21658"
       d="m 417.77988,60.397514 c 1.08986,-0.913104 3.50418,2.380518 3.5695,4.906587 0.0653,2.52607 -0.91807,5.45962 -3.86696,5.653175 -2.9489,0.193554 0.29745,-3.559923 0.29745,-5.504446 0,-1.950202 -1.16634,-4.078124 10e-6,-5.055316 z"
       style="fill:#000000;fill-opacity:1;stroke:none;stroke-width:4;stroke-linejoin:round;stroke-miterlimit:4;stroke-opacity:1"
       inkscape:connector-curvature="0" /><rect
       transform="matrix(0.9417013,0.33645,-0.2421177,0.9702469,0,0)"
       ry="3.8516719"
       rx="5.8048143"
       y="-81.659538"
       x="423.64111"
       height="3.0205843"
       width="23.271473"
       id="rect21661"
       style="opacity:1;fill:#000000;fill-opacity:1;stroke:none;stroke-width:4;stroke-linejoin:round;stroke-miterlimit:4;stroke-dasharray:none;stroke-opacity:1" /><rect
       style="opacity:1;fill:#000000;fill-opacity:1;stroke:none;stroke-width:4;stroke-linejoin:round;stroke-miterlimit:4;stroke-dasharray:none;stroke-opacity:1"
       id="rect21663"
       width="23.271473"
       height="3.0205843"
       x="392.64462"
       y="-204.06119"
       rx="5.8048143"
       ry="3.8516719"
       transform="matrix(0.9417013,-0.33645,-0.2421177,-0.9702469,0,0)" /><rect
       transform="matrix(0.9966933,-0.08125552,0.01725064,-0.9998512,0,0)"
       ry="3.8516719"
       rx="5.8048143"
       y="-101.1691"
       x="422.46121"
       height="3.0205843"
       width="23.271473"
       id="rect21665"
       style="opacity:1;fill:#000000;fill-opacity:1;stroke:none;stroke-width:4;stroke-linejoin:round;stroke-miterlimit:4;stroke-dasharray:none;stroke-opacity:1" /><g
       id="g24579"><path
         style="fill:#000000;fill-opacity:1;stroke:none;stroke-width:2.79999995;stroke-linejoin:round;stroke-miterlimit:4;stroke-opacity:1"
         d="m 172.63514,223.57439 c 2.85268,0 5.14925,4.23623 5.14925,9.49825 v 19.12604 c 0,5.26202 0.59422,9.67639 -5.14925,9.49824 -2.85135,-0.0857 -5.14924,-4.23622 -5.14924,-9.49824 v -19.12604 c 0,-5.26202 2.29656,-9.49825 5.14924,-9.49825 z"
         id="rect21667"
         sodipodi:nodetypes="cccsccc"
         inkscape:connector-curvature="0" /><path
         sodipodi:nodetypes="cccsccc"
         id="path23608"
         d="m 171.73422,227.25148 c 2.05328,0 3.70629,3.3459 3.70629,7.502 v 15.10633 c 0,4.1561 0.4277,7.6427 -3.70629,7.502 -2.05233,-0.0677 -3.70629,-3.3459 -3.70629,-7.502 v -15.10633 c 0,-4.1561 1.653,-7.502 3.70629,-7.502 z"
         style="fill:#7689c4;fill-opacity:1;stroke:none;stroke-width:2.79999995;stroke-linejoin:round;stroke-miterlimit:4;stroke-opacity:1"
         inkscape:connector-curvature="0" /></g><g
       transform="matrix(1,0,0,0.998347,9.2647262,4.2393518)"
       id="g24583"><path
         sodipodi:nodetypes="cccsccc"
         id="path24585"
         d="m 172.63514,223.57439 c 2.85268,0 5.14925,4.23623 5.14925,9.49825 v 19.12604 c 0,5.26202 0.59422,9.67639 -5.14925,9.49824 -2.85135,-0.0857 -5.14924,-4.23622 -5.14924,-9.49824 v -19.12604 c 0,-5.26202 2.29656,-9.49825 5.14924,-9.49825 z"
         style="fill:#000000;fill-opacity:1;stroke:none;stroke-width:2.79999995;stroke-linejoin:round;stroke-miterlimit:4;stroke-opacity:1"
         inkscape:connector-curvature="0" /><path
         style="fill:#7689c4;fill-opacity:1;stroke:none;stroke-width:2.79999995;stroke-linejoin:round;stroke-miterlimit:4;stroke-opacity:1"
         d="m 171.73422,227.25148 c 2.05328,0 3.70629,3.3459 3.70629,7.502 v 15.10633 c 0,4.1561 0.4277,7.6427 -3.70629,7.502 -2.05233,-0.0677 -3.70629,-3.3459 -3.70629,-7.502 v -15.10633 c 0,-4.1561 1.653,-7.502 3.70629,-7.502 z"
         id="path24587"
         sodipodi:nodetypes="cccsccc"
         inkscape:connector-curvature="0" /></g><g
       id="g24589"
       transform="matrix(1.2252401,0,0,0.8880717,-18.910769,34.434768)"><path
         style="fill:#000000;fill-opacity:1;stroke:none;stroke-width:2.79999995;stroke-linejoin:round;stroke-miterlimit:4;stroke-opacity:1"
         d="m 172.63514,223.57439 c 2.85268,0 5.14925,4.23623 5.14925,9.49825 v 19.12604 c 0,5.26202 0.59422,9.67639 -5.14925,9.49824 -2.85135,-0.0857 -5.14924,-4.23622 -5.14924,-9.49824 v -19.12604 c 0,-5.26202 2.29656,-9.49825 5.14924,-9.49825 z"
         id="path24591"
         sodipodi:nodetypes="cccsccc"
         inkscape:connector-curvature="0" /><path
         sodipodi:nodetypes="cccsccc"
         id="path24593"
         d="m 171.73422,227.25148 c 2.05328,0 3.70629,3.3459 3.70629,7.502 v 15.10633 c 0,4.1561 0.4277,7.6427 -3.70629,7.502 -2.05233,-0.0677 -3.70629,-3.3459 -3.70629,-7.502 v -15.10633 c 0,-4.1561 1.653,-7.502 3.70629,-7.502 z"
         style="fill:#7689c4;fill-opacity:1;stroke:none;stroke-width:2.79999995;stroke-linejoin:round;stroke-miterlimit:4;stroke-opacity:1"
         inkscape:connector-curvature="0" /></g><g
       transform="matrix(1,0,0,0.7474219,-18.119017,44.772491)"
       id="g24595"><path
         sodipodi:nodetypes="cccsccc"
         id="path24597"
         d="m 172.63514,223.57439 c 2.85268,0 5.14925,4.23623 5.14925,9.49825 v 19.12604 c 0,5.26202 0.59422,9.67639 -5.14925,9.49824 -2.85135,-0.0857 -5.14924,-4.23622 -5.14924,-9.49824 v -19.12604 c 0,-5.26202 2.29656,-9.49825 5.14924,-9.49825 z"
         style="fill:#000000;fill-opacity:1;stroke:none;stroke-width:2.79999995;stroke-linejoin:round;stroke-miterlimit:4;stroke-opacity:1"
         inkscape:connector-curvature="0" /><path
         style="fill:#7689c4;fill-opacity:1;stroke:none;stroke-width:2.79999995;stroke-linejoin:round;stroke-miterlimit:4;stroke-opacity:1"
         d="m 171.73422,227.25148 c 2.05328,0 3.70629,3.3459 3.70629,7.502 v 15.10633 c 0,4.1561 0.4277,7.6427 -3.70629,7.502 -2.05233,-0.0677 -3.70629,-3.3459 -3.70629,-7.502 v -15.10633 c 0,-4.1561 1.653,-7.502 3.70629,-7.502 z"
         id="path24599"
         sodipodi:nodetypes="cccsccc"
         inkscape:connector-curvature="0" /></g><path
       sodipodi:nodetypes="cccsccc"
       id="path24603"
       d="m 162.18627,216.19207 c 2.17954,0 3.9342,3.27689 3.9342,7.34728 v 14.79475 c 0,4.07038 0.454,7.48507 -3.9342,7.34726 -2.17853,-0.0663 -3.9342,-3.27688 -3.9342,-7.34726 v -14.79475 c 0,-4.07039 1.75465,-7.34728 3.9342,-7.34728 z"
       style="fill:#000000;fill-opacity:1;stroke:none;stroke-width:2.79999995;stroke-linejoin:round;stroke-miterlimit:4;stroke-opacity:1"
       inkscape:connector-curvature="0" /><path
       style="fill:#43599d;fill-opacity:1;stroke:none;stroke-width:2.79999995;stroke-linejoin:round;stroke-miterlimit:4;stroke-opacity:1;filter:url(#filter10860)"
       d="m 161.49793,219.03645 c 1.56878,0 2.83173,2.58818 2.83173,5.80309 v 11.68535 c 0,3.21491 0.32678,5.91193 -2.83173,5.80309 -1.56805,-0.0524 -2.83173,-2.58818 -2.83173,-5.80309 v -11.68535 c 0,-3.21491 1.26295,-5.80309 2.83173,-5.80309 z"
       id="path24605"
       sodipodi:nodetypes="cccsccc"
       inkscape:connector-curvature="0" /><g
       transform="matrix(1,0,0,0.879434,145.31358,20.806081)"
       id="g24607"><path
         sodipodi:nodetypes="cccsccc"
         id="path24609"
         d="m 172.63514,223.57439 c 2.85268,0 5.14925,4.23623 5.14925,9.49825 v 19.12604 c 0,5.26202 0.59422,9.67639 -5.14925,9.49824 -2.85135,-0.0857 -5.14924,-4.23622 -5.14924,-9.49824 v -19.12604 c 0,-5.26202 2.29656,-9.49825 5.14924,-9.49825 z"
         style="fill:#000000;fill-opacity:1;stroke:none;stroke-width:2.79999995;stroke-linejoin:round;stroke-miterlimit:4;stroke-opacity:1"
         inkscape:connector-curvature="0" /><path
         style="fill:#7689c4;fill-opacity:1;stroke:none;stroke-width:2.79999995;stroke-linejoin:round;stroke-miterlimit:4;stroke-opacity:1"
         d="m 171.73422,227.25148 c 2.05328,0 3.70629,3.3459 3.70629,7.502 v 15.10633 c 0,4.1561 0.4277,7.6427 -3.70629,7.502 -2.05233,-0.0677 -3.70629,-3.3459 -3.70629,-7.502 v -15.10633 c 0,-4.1561 1.653,-7.502 3.70629,-7.502 z"
         id="path24611"
         sodipodi:nodetypes="cccsccc"
         inkscape:connector-curvature="0" /></g><path
       sodipodi:nodetypes="ccccccczzcc"
       id="path24613"
       d="m 291.69478,205.83301 c 0,0 13.1164,-4.91793 16.43743,-2.92531 1.393,0.8358 0.97511,13.93003 0.97511,13.93003 0,11.14402 -0.9751,23.54175 -0.9751,23.54175 l 5.43271,5.57201 -0.97511,-37.05387 c 0,0 -0.239,-17.27324 -4.179,-17.27324 -1.8109,0 -0.6965,3.79593 -3.20391,5.98991 -2.50741,2.19398 -4.3009,1.54972 -8.35802,2.78601 -4.05712,1.23629 -10.44752,3.20391 -15.18373,3.20391 z"
       style="fill:#000000;fill-opacity:1;fill-rule:evenodd;stroke:none;stroke-width:1px;stroke-linecap:butt;stroke-linejoin:miter;stroke-opacity:1"
       inkscape:connector-curvature="0" /><g
       id="g2199"
       transform="matrix(1,0,0,0.8319383,154.89568,35.235806)"><path
         style="fill:#000000;fill-opacity:1;stroke:none;stroke-width:2.79999995;stroke-linejoin:round;stroke-miterlimit:4;stroke-opacity:1"
         d="m 172.63514,223.57439 c 2.85268,0 5.14925,4.23623 5.14925,9.49825 v 19.12604 c 0,5.26202 0.59422,9.67639 -5.14925,9.49824 -2.85135,-0.0857 -5.14924,-4.23622 -5.14924,-9.49824 v -19.12604 c 0,-5.26202 2.29656,-9.49825 5.14924,-9.49825 z"
         id="path2201"
         sodipodi:nodetypes="cccsccc"
         inkscape:connector-curvature="0" /><path
         sodipodi:nodetypes="cccsccc"
         id="path2203"
         d="m 171.73422,227.25148 c 2.05328,0 3.70629,3.3459 3.70629,7.502 v 15.10633 c 0,4.1561 0.4277,7.6427 -3.70629,7.502 -2.05233,-0.0677 -3.70629,-3.3459 -3.70629,-7.502 v -15.10633 c 0,-4.1561 1.653,-7.502 3.70629,-7.502 z"
         style="fill:#7689c4;fill-opacity:1;stroke:none;stroke-width:2.79999995;stroke-linejoin:round;stroke-miterlimit:4;stroke-opacity:1"
         inkscape:connector-curvature="0" /></g><g
       transform="matrix(1.0945237,0,0,0.7552144,148.2285,56.060891)"
       id="g2205"><path
         sodipodi:nodetypes="cccsccc"
         id="path2207"
         d="m 172.63514,223.57439 c 2.85268,0 5.14925,4.23623 5.14925,9.49825 v 19.12604 c 0,5.26202 0.59422,9.67639 -5.14925,9.49824 -2.85135,-0.0857 -5.14924,-4.23622 -5.14924,-9.49824 v -19.12604 c 0,-5.26202 2.29656,-9.49825 5.14924,-9.49825 z"
         style="fill:#000000;fill-opacity:1;stroke:none;stroke-width:2.79999995;stroke-linejoin:round;stroke-miterlimit:4;stroke-opacity:1"
         inkscape:connector-curvature="0" /><path
         style="fill:#7689c4;fill-opacity:1;stroke:none;stroke-width:2.79999995;stroke-linejoin:round;stroke-miterlimit:4;stroke-opacity:1"
         d="m 171.73422,227.25148 c 2.05328,0 3.70629,3.3459 3.70629,7.502 v 15.10633 c 0,4.1561 0.4277,7.6427 -3.70629,7.502 -2.05233,-0.0677 -3.70629,-3.3459 -3.70629,-7.502 v -15.10633 c 0,-4.1561 1.653,-7.502 3.70629,-7.502 z"
         id="path2209"
         sodipodi:nodetypes="cccsccc"
         inkscape:connector-curvature="0" /></g><path
       sodipodi:nodetypes="cccsccc"
       id="path2213"
       d="m 296.48807,211.22582 c 2.19782,0 3.9672,2.99806 3.9672,6.72209 v 13.53586 c 0,3.72403 0.45781,6.84816 -3.9672,6.72208 -2.1968,-0.0607 -3.96719,-2.99805 -3.96719,-6.72208 v -13.53586 c 0,-3.72403 1.76936,-6.72209 3.96719,-6.72209 z"
       style="fill:#000000;fill-opacity:1;stroke:none;stroke-width:2.79999995;stroke-linejoin:round;stroke-miterlimit:4;stroke-opacity:1"
       inkscape:connector-curvature="0" /><path
       style="fill:#42599c;fill-opacity:1;stroke:none;stroke-width:2.79999995;stroke-linejoin:round;stroke-miterlimit:4;stroke-opacity:1;filter:url(#filter11851)"
       d="m 295.79396,213.82817 c 1.58194,0 2.85549,2.36795 2.85549,5.3093 v 10.69104 c 0,2.94135 0.32951,5.40888 -2.85549,5.3093 -1.5812,-0.0479 -2.85548,-2.36795 -2.85548,-5.3093 v -10.69104 c 0,-2.94135 1.27354,-5.3093 2.85548,-5.3093 z"
       id="path2215"
       sodipodi:nodetypes="cccsccc"
       inkscape:connector-curvature="0" /><path
       style="fill:#000000;fill-opacity:1;stroke:none;stroke-width:2.79999995;stroke-linejoin:round;stroke-miterlimit:4;stroke-opacity:1"
       d="m 304.48689,216.06162 c 2.58303,0 4.66252,2.88972 4.66252,6.47918 v 13.04672 c 0,3.58945 0.53805,6.60069 -4.66252,6.47917 -2.58183,-0.0585 -4.66252,-2.88972 -4.66252,-6.47917 V 222.5408 c 0,-3.58946 2.07948,-6.47918 4.66252,-6.47918 z"
       id="path2219"
       sodipodi:nodetypes="cccsccc"
       inkscape:connector-curvature="0" /><path
       sodipodi:nodetypes="cccsccc"
       id="path2221"
       d="m 303.67113,218.56993 c 1.85919,0 3.35595,2.28239 3.35595,5.11744 v 10.3047 c 0,2.83506 0.38728,5.21342 -3.35595,5.11745 -1.85834,-0.0462 -3.35596,-2.28239 -3.35596,-5.11745 v -10.3047 c 0,-2.83505 1.49675,-5.11744 3.35596,-5.11744 z"
       style="fill:#42599c;fill-opacity:1;stroke:none;stroke-width:2.79999995;stroke-linejoin:round;stroke-miterlimit:4;stroke-opacity:1"
       inkscape:connector-curvature="0" /><path
       sodipodi:nodetypes="ccccscsscccscccc"
       id="path2220"
       d="m 243.26458,81.39795 -9.94497,63.8993 h 12.43122 l 4.97248,-31.94965 c 0,0 3.52686,0 11.99817,0 4.35093,0 4.41662,3.20413 4.41662,3.20413 0,0 0.36736,0.78958 -0.25423,4.7833 -0.62154,3.9937 1.24313,-7.98743 -1.2431,7.98741 -0.93235,5.99055 -2.48625,15.97481 -2.48625,15.97481 h 12.43121 c 1.39699,-10.69883 3.78598,-21.29366 4.8948,-32.02645 0.31749,-5.83895 -0.88209,-8.87461 -3.63833,-10.34191 -2.59209,-1.37991 -4.85607,-1.80561 -11.97839,-1.86961 -5.08427,0 -9.9918,0 -12.19813,0 l 3.03012,-19.66133 z"
       style="fill:#000000;fill-opacity:1;stroke:#ffffff;stroke-width:2.5;stroke-linejoin:miter;stroke-miterlimit:4;stroke-dasharray:none;stroke-opacity:1"
       inkscape:connector-curvature="0" /><path
       sodipodi:nodetypes="ccczccczz"
       id="path19704"
       d="m 221.34876,40.669873 c 6.41168,8.039705 11.49005,26.815292 11.97707,33.156377 1.46773,11.400877 0.99541,27.01838 0.37452,38.43388 0.18263,3.34824 0.49346,3.62804 1.52837,4.17593 1.03491,0.54789 2.32258,-0.30471 2.84588,-4.01461 1.34495,-18.410411 0.0858,-31.249611 -0.80651,-38.592232 -1.58398,-11.210896 -5.25347,-22.725419 -10.80566,-33.063118 -1.70455,-2.861219 -2.33491,-2.867101 -3.61333,-2.927978 -1.27842,-0.06088 -7.85517,-5.136666 -1.50034,2.831751 z"
       style="fill:#000000;fill-opacity:1;fill-rule:evenodd;stroke:none;stroke-width:1px;stroke-linecap:butt;stroke-linejoin:miter;stroke-opacity:1"
       inkscape:connector-curvature="0" /><path
       sodipodi:nodetypes="ccccczzcz"
       id="path6790"
       d="m 186.2512,35.16992 c -6.85226,2.597814 -25.31799,12.94417 -32.02245,20.292526 9.71307,-1.087658 17.9372,-9.363465 27.74,-12.868696 8.09602,-2.574488 14.3292,-5.36936 25.7144,-3.352571 24.36204,5.158752 20.35906,50.692358 23.67106,72.702431 4.80691,1.54342 3.13866,-31.672096 1.14233,-43.206721 -1.99338,-11.517628 -8.26389,-25.254909 -10.58027,-27.47328 -4.68659,-4.4883 -2.38933,-8.254987 -12.54486,-10.33493 -7.92124,-1.493126 -16.26795,1.643427 -23.12021,4.241241 z"
       style="opacity:1;fill:#96a4d2;fill-opacity:1;fill-rule:evenodd;stroke:none;stroke-width:6;stroke-linecap:butt;stroke-linejoin:round;stroke-miterlimit:4;stroke-dasharray:none;stroke-opacity:1;filter:url(#filter8877)"
       inkscape:connector-curvature="0" /><g
       id="g4248"><path
         style="fill:#000000;fill-opacity:1;stroke:#ffffff;stroke-width:2.5;stroke-linejoin:miter;stroke-miterlimit:4;stroke-dasharray:none;stroke-opacity:1"
         d="m 188.42814,99.830432 -9.94497,63.899288 h 12.43121 l 2.64164,-17.20366 c 0.22104,0 15.24197,0 21.13305,0 2.80549,0 7.72039,-1.63691 12.04274,-4.76172 4.37412,-3.16224 8.96188,-11.22098 9.40111,-19.20051 0.43951,-7.98469 -0.30348,-15.46806 -3.96245,-18.8165 -3.71855,-3.40295 -5.81176,-3.808285 -14.06281,-3.916898 -7.2051,0 -17.24831,0 -17.24831,0 z"
         id="rect2271"
         inkscape:connector-curvature="0" /><path
         style="fill:#7689c4;fill-opacity:1;stroke:#ffffff;stroke-width:2.5;stroke-linejoin:miter;stroke-miterlimit:4;stroke-dasharray:none;stroke-opacity:1"
         d="m 195.10992,136.6954 c 1.44215,0 9.70526,0 13.44124,0 1.91932,0 5.27863,-0.92334 8.23568,-2.76487 2.99247,-1.86359 6.14821,-6.66416 6.4487,-11.3667 0.30068,-4.70558 -0.21611,-9.08617 -2.71933,-11.05949 -2.54398,-2.00545 -3.98939,-2.24005 -9.63419,-2.30406 -4.79953,0 -11.15395,0 -11.49887,0 z"
         id="path10025"
         inkscape:connector-curvature="0" /></g><g
       id="g4252"><path
         id="path11008"
         d="m 284.01434,99.830432 -9.94497,63.899288 h 12.43122 l 2.64163,-17.20366 c 0.22104,0 15.24198,0 21.13306,0 2.80549,0 7.72038,-1.63691 12.04274,-4.76172 4.37411,-3.16224 8.96187,-11.22098 9.4011,-19.20051 0.43951,-7.98469 -0.30347,-15.46806 -3.96245,-18.8165 -3.71855,-3.40295 -5.81176,-3.808285 -14.06281,-3.916898 -7.2051,0 -17.2483,0 -17.2483,0 z"
         style="fill:#000000;fill-opacity:1;stroke:#ffffff;stroke-width:2.5;stroke-linejoin:miter;stroke-miterlimit:4;stroke-dasharray:none;stroke-opacity:1"
         inkscape:connector-curvature="0" /><path
         id="path11010"
         d="m 290.69612,136.6954 c 1.44216,0 9.70527,0 13.44125,0 1.91932,0 5.27862,-0.92334 8.23568,-2.76487 2.99246,-1.86359 6.1482,-6.66416 6.44869,-11.3667 0.30068,-4.70558 -0.21611,-9.08617 -2.71933,-11.05949 -2.54398,-2.00545 -3.98939,-2.24005 -9.63419,-2.30406 -4.79953,0 -11.15394,0 -11.49887,0 z"
         style="fill:#7689c4;fill-opacity:1;stroke:#ffffff;stroke-width:2.5;stroke-linejoin:miter;stroke-miterlimit:4;stroke-dasharray:none;stroke-opacity:1"
         inkscape:connector-curvature="0" /></g><path
       style="opacity:1;fill:#96a4d2;fill-opacity:1;fill-rule:evenodd;stroke:none;stroke-width:6;stroke-linecap:butt;stroke-linejoin:round;stroke-miterlimit:4;stroke-dasharray:none;stroke-opacity:1;filter:url(#filter8857)"
       d="m 85.718056,248.32449 c 0.941718,0.32814 -7.512294,1.87061 -13.711024,-6.76474 -6.35571,-8.85405 -5.30562,-29.0218 -4.98851,-42.97505 -0.68074,-19.9811 -0.0841,-36.7304 1.908515,-56.61202 0.67454,-5.62667 10.346627,-55.242629 10.346627,-55.242629 0,0 2.687889,-11.47738 5.053129,-18.9254 2.36524,-7.44802 3.918933,-8.477422 5.917393,-10.581972 1.78445,-1.87918 6.879196,-3.718815 16.576394,-5.520755 -22.308371,7.879036 -28.13915,75.470486 -31.994844,105.748846 -3.855693,30.27836 -0.647527,56.00971 0.267674,64.21084 0.941129,8.43348 9.682928,26.33474 10.624646,26.66288 z"
       id="path2217"
       sodipodi:nodetypes="czccczzczzz"
       inkscape:connector-curvature="0" /></g><g
     id="Page-1"
     transform="translate(1009.4657,244.5)"
     style="fill:none;fill-rule:evenodd;stroke:none;stroke-width:1"><g
       transform="translate(-173,-107)"
       id="Artboard-3"><g
         transform="translate(173,107)"
         id="Group"><path
           id="Shape"
           d="M 27.796237,66.450609 C -10.693394,55.617715 17.926953,6.6103059 48.83509,26.767692 Z"
           inkscape:connector-curvature="0"
           style="fill:#6ad7e5" /><path
           id="path4195"
           d="M 198.94812,22.82564 C 229.41389,1.4083776 256.9446,49.729627 221.53749,61.887564 Z"
           inkscape:connector-curvature="0"
           style="fill:#6ad7e5" /><path
           id="path4197"
           d="M 29.706275,52.846065 C 24.628327,50.157647 20.90301,46.506432 24.009143,40.628073 26.884838,35.186071 32.227056,35.777037 37.305642,38.465455 Z"
           inkscape:connector-curvature="0"
           style="fill:#000000" /><path
           id="path4199"
           d="m 213.80825,47.403605 c 5.07794,-2.688418 8.80326,-6.339633 5.69713,-12.217992 -2.8757,-5.442002 -8.21792,-4.851036 -13.2965,-2.162618 z"
           inkscape:connector-curvature="0"
           style="fill:#000000" /><path
           id="path4201"
           d="m 233.64397,30.512207 c 6.75346,11.774495 2.52505,24.765278 -12.59363,29.956664 l 1.78565,0.667772 -22.58937,-39.061924 -0.43584,1.97804 c 13.04459,-9.170272 27.04119,-5.382235 33.83319,6.459448 z m -36.68165,-8.124124 0.68729,1.188478 22.58937,39.061924 0.61803,1.068705 1.16762,-0.400933 C 238.9893,57.481006 243.90631,42.374641 236.2463,29.019598 228.60585,15.698657 212.6288,11.374634 198.08546,21.598521 Z"
           inkscape:connector-curvature="0"
           style="fill:#000000" /><path
           id="path4203"
           d="m 13.600306,35.720618 c 6.7234,-12.007857 21.161127,-16.34055 34.415385,-7.696508 L 47.509826,26.065071 26.470973,65.747989 28.202622,65.006708 C 11.774369,60.382982 6.8759745,47.730138 13.600306,35.720618 Z M 28.55468,68.222351 29.121501,67.15323 50.160354,27.470313 50.802161,26.259753 49.654489,25.511274 C 34.884734,15.87887 18.522457,20.789111 10.982695,34.254973 3.3268426,47.928171 9.0592714,62.735375 27.389851,67.894511 Z"
           inkscape:connector-curvature="0"
           style="fill:#000000" /><path
           id="path4205"
           d="m 4.3612324,185.70643 c 0.4876872,10.06304 10.5318746,5.40686 15.0812816,2.261 4.31833,-2.98677 5.580955,-0.50408 5.960125,-6.39841 0.248312,-3.87418 0.694508,-7.74837 0.474921,-11.63788 -6.530158,-0.59225 -13.632902,0.96407 -18.9866096,4.85678 -2.7576033,2.00546 -7.9281094,8.40642 -2.529718,10.91851"
           inkscape:connector-curvature="0"
           style="fill:#f6d2a2" /><path
           id="path4207"
           d="m 4.722785,185.66932 c 1.4617851,-0.54433 3.011022,-0.93086 4.0029931,-2.25398"
           inkscape:connector-curvature="0"
           style="fill:#c6b198;stroke:#000000;stroke-width:3" /><path
           id="path4209"
           d="m 10.521075,193.2835 c 3.035034,-0.28933 6.689562,-1.94906 9.774569,-4.0823 0.684385,-0.47336 1.311172,-0.81587 1.954346,-1.09085 0.247685,-0.10589 0.490042,-0.19899 0.785808,-0.30436 0.0434,-0.0155 0.590722,-0.20638 0.746037,-0.26359 2.193751,-0.80808 2.873971,-2.08808 3.11771,-5.87708 0.04692,-0.73206 0.0896,-1.31784 0.190262,-2.6461 0.344436,-4.54515 0.431403,-6.58593 0.285368,-9.17263 l -0.07296,-1.2924 -1.289167,-0.11692 c -7.16022,-0.64939 -14.540561,1.1648 -20.0042186,5.13745 -1.8254573,1.32756 -3.8357247,3.67752 -4.8118705,5.87308 -1.41850737,3.19053 -0.73537708,6.09842 2.5314314,7.61859 l 1.2656922,-2.71993 c -1.6078263,-0.74818 -1.8676176,-1.85404 -1.0558466,-3.67989 0.7495593,-1.68592 2.4151972,-3.63302 3.8349539,-4.66553 4.8496492,-3.5262 11.5052712,-5.16224 17.9688892,-4.57603 l -1.362131,-1.40932 c 0.136108,2.41085 0.05291,4.36322 -0.28156,8.77684 -0.101537,1.33987 -0.144782,1.93335 -0.192673,2.68055 -0.175491,2.72805 -0.283342,2.931 -1.160821,3.25422 -0.126317,0.0465 -0.650908,0.22953 -0.715865,0.25267 -0.349527,0.12452 -0.647019,0.23879 -0.958374,0.37191 -0.824313,0.35242 -1.627811,0.7915 -2.481404,1.38189 -2.701189,1.86783 -5.924632,3.33179 -8.352866,3.56327 -2.7684164,0.26391 -4.1976604,-0.96461 -4.376907,-4.66322 l -2.9964832,0.14522 c 0.2623479,5.41334 3.190602,7.93034 7.6580842,7.50446 z"
           inkscape:connector-curvature="0"
           style="fill:#000000" /><path
           id="path4211"
           d="m 4.722785,185.66932 c 1.4617851,-0.54433 3.011022,-0.93086 4.0029931,-2.25398"
           inkscape:connector-curvature="0"
           style="fill:#c6b198;stroke:#000000;stroke-width:3" /><path
           id="path4213"
           d="m 205.87724,309.499 c 7.73852,4.79226 21.88336,19.28275 10.27462,26.30918 -11.15425,10.22149 -17.39716,-11.21941 -27.18729,-14.19022 4.2162,-5.73078 9.56033,-10.9562 16.91267,-12.11896 z"
           inkscape:connector-curvature="0"
           style="fill:#f6d2a2" /><path
           id="path4215"
           d="m 216.98269,322.58612 c 3.13734,5.24181 2.83009,9.25285 -1.60754,11.93882 l -0.12714,0.077 -0.10956,0.1004 c -4.64387,4.25553 -7.81448,2.87079 -13.9678,-4.2779 -0.19115,-0.22206 -0.39105,-0.45563 -0.62999,-0.73585 -0.14803,-0.17359 -0.31651,-0.37151 -0.63471,-0.74535 -4.69627,-5.51494 -7.09862,-7.72669 -10.50582,-8.7606 l 0.77268,2.32428 c 4.91928,-6.68643 9.90554,-10.57214 15.93874,-11.52629 l -1.02405,-0.20631 c 4.30528,2.66614 9.27478,7.4337 11.89519,11.81185 z m -10.78942,-14.65575 -0.55035,0.087 c -6.96359,1.10129 -12.5443,5.45025 -17.88658,12.71164 l -1.2569,1.70841 2.02957,0.61587 c 2.63345,0.79912 4.80053,2.79426 9.09287,7.83487 0.31758,0.3731 0.48704,0.57217 0.63601,0.74687 0.24172,0.28348 0.44449,0.5204 0.63906,0.74644 3.30517,3.83982 5.44451,5.8195 7.9746,6.9245 3.41392,1.491 6.84465,0.76872 10.29372,-2.39193 l -0.2367,0.17735 c 6.07418,-3.67652 6.52321,-9.53841 2.62828,-16.046 -2.88307,-4.81699 -8.19863,-9.91654 -12.88988,-12.8217 z"
           inkscape:connector-curvature="0"
           style="fill:#000000" /><path
           id="path4217"
           d="m 215.92545,332.12096 c -0.0323,-0.0868 -0.0323,-0.0868 -0.0646,-0.17374 -1.4108,-3.79381 -2.25775,-5.45668 -4.07471,-7.20247 l -2.07853,2.16326 c 1.38388,1.32968 2.08486,2.70596 3.34137,6.08486 0.0324,0.087 0.0324,0.087 0.0648,0.17423 0.62477,1.67917 0.97395,2.53948 1.46456,3.51588 l 2.68064,-1.34691 c -0.42647,-0.84875 -0.74568,-1.63521 -1.33351,-3.21511 z"
           inkscape:connector-curvature="0"
           style="fill:#000000" /><path
           id="path4219"
           d="m 66.934623,325.78407 c -9.082856,1.40682 -14.195274,9.60815 -21.767193,13.77303 -7.135298,4.25815 -9.864815,-1.36338 -10.507617,-2.50442 -1.118362,-0.51047 -1.024526,0.47533 -2.750582,-1.26435 -6.614418,-10.44829 6.892093,-18.08549 13.925258,-23.27577 9.795875,-1.98181 15.934734,6.51788 21.100134,13.27151 z"
           inkscape:connector-curvature="0"
           style="fill:#f6d2a2" /><path
           id="path4221"
           d="m 52.162043,332.472 c -0.09786,0.0837 -0.09786,0.0837 -0.195615,0.16722 -3.590296,3.06917 -5.284644,4.37298 -7.521918,5.60358 -3.547861,2.11619 -5.717651,1.70007 -7.363042,-0.22448 -0.248591,-0.29077 -0.472079,-0.6045 -0.682932,-0.94639 -0.08152,-0.13219 -0.158029,-0.26331 -0.240663,-0.41073 -0.03749,-0.0669 -0.164065,-0.29664 -0.191169,-0.34475 l -0.239724,-0.42554 -0.444318,-0.2028 c -0.569864,-0.26011 -0.978438,-0.31887 -1.536611,-0.30157 -0.12337,-0.0507 -0.380916,-0.26052 -0.771999,-0.65469 l 0.202563,0.25415 c -3.666179,-5.79118 -0.833547,-10.72957 7.650141,-17.03955 1.18793,-0.88356 5.2122,-3.72055 5.898416,-4.22696 l -0.593242,0.26328 c 6.396039,-1.29399 11.135854,1.85755 17.342691,9.76318 0.351115,0.44722 0.712423,0.91433 1.147066,1.48158 0.235383,0.3072 1.025013,1.34169 1.121472,1.46781 l 0.96187,-2.3936 c -5.053301,0.7827 -8.286417,2.82231 -14.542986,8.17026 z m 17.498967,-5.59233 -1.534924,-2.00687 c -0.0949,-0.12408 -0.88565,-1.16004 -1.123073,-1.4699 -0.441242,-0.57587 -0.809377,-1.05181 -1.168751,-1.50954 -6.84345,-8.71649 -12.443398,-12.43993 -20.297213,-10.85102 l -0.325792,0.0659 -0.26745,0.19737 c -0.649648,0.47942 -4.680066,3.32075 -5.907452,4.23365 -4.210502,3.13168 -7.016827,5.83462 -8.736268,8.83227 -2.267963,3.95395 -2.287982,8.06511 0.34176,12.21911 l 0.08743,0.13812 0.115129,0.11603 c 1.148705,1.15777 1.90301,1.56041 2.887948,1.54309 0.243142,-0.007 0.216505,-0.0109 0.304606,0.0294 l 0.622849,-1.36457 -1.306891,0.73623 c 0.01824,0.0324 0.142754,0.2584 0.188048,0.3392 0.101646,0.18133 0.198544,0.3474 0.304116,0.51858 0.287273,0.46581 0.598864,0.90322 0.956141,1.32112 2.574021,3.01073 6.347434,3.73438 11.134888,0.87736 2.430361,-1.33574 4.234598,-2.72411 7.979673,-5.9256 0.09781,-0.0836 0.09781,-0.0836 0.195514,-0.16713 5.846166,-4.99715 8.730128,-6.8165 13.052914,-7.48605 z"
           inkscape:connector-curvature="0"
           style="fill:#000000" /><path
           id="path4223"
           d="m 34.673421,337.65629 c 0.345977,-3.98215 3.500624,-6.64885 5.003262,-10.01576"
           inkscape:connector-curvature="0"
           style="stroke:#000000;stroke-width:3" /><path
           id="path4225"
           d="m 248.65888,184.79935 c -0.48768,10.06304 -10.53187,5.40686 -15.08128,2.26101 -4.31833,-2.98678 -5.58095,-0.50408 -5.96012,-6.39841 -0.24832,-3.87419 -0.69451,-7.74837 -0.47492,-11.63789 6.53015,-0.59224 13.6329,0.96407 18.9866,4.85679 2.75697,2.00545 7.92811,8.40641 2.52972,10.9185"
           inkscape:connector-curvature="0"
           style="fill:#f6d2a2" /><path
           id="path4227"
           d="m 242.78373,189.38996 c -2.42823,-0.23148 -5.65167,-1.69543 -8.353,-3.56337 -0.85345,-0.59029 -1.65695,-1.02937 -2.48127,-1.38179 -0.31135,-0.13311 -0.60884,-0.24739 -0.95837,-0.37191 -0.065,-0.0231 -0.58955,-0.20613 -0.71586,-0.25266 -0.87748,-0.32322 -0.98534,-0.52617 -1.16085,-3.25458 -0.0479,-0.74685 -0.0911,-1.34033 -0.19265,-2.6802 -0.33447,-4.41362 -0.41767,-6.36599 -0.28156,-8.77684 l -1.36213,1.40932 c 6.46362,-0.58621 13.11924,1.04983 17.969,4.57612 1.41944,1.03252 3.08503,2.97963 3.83462,4.66549 0.81186,1.8259 0.55214,2.93169 -1.05562,3.67985 l 1.26569,2.71993 c 3.26683,-1.52019 3.94981,-4.42807 2.53117,-7.61864 -0.97615,-2.19538 -2.98625,-4.54524 -4.81137,-5.87286 -5.4639,-3.97283 -12.84424,-5.78702 -20.00446,-5.13763 l -1.28917,0.11692 -0.073,1.2924 c -0.14603,2.5867 -0.0591,4.62748 0.28537,9.17263 0.10066,1.32826 0.14334,1.91404 0.19024,2.64575 0.24376,3.78935 0.92398,5.06936 3.11773,5.87743 0.15531,0.0572 0.70264,0.24813 0.74604,0.26359 0.29576,0.10537 0.53812,0.19847 0.78581,0.30436 0.64317,0.27498 1.26996,0.61749 1.9542,1.09075 3.08515,2.13334 6.73968,3.79308 9.77471,4.0824 4.46748,0.42588 7.39574,-2.09112 7.65808,-7.50446 l -2.99648,-0.14522 c -0.17925,3.69861 -1.60849,4.92713 -4.37691,4.66322 z"
           inkscape:connector-curvature="0"
           style="fill:#000000" /><path
           id="path4229"
           d="m 248.33086,184.76224 c -1.46178,-0.54433 -3.01102,-0.93085 -4.00299,-2.25398"
           inkscape:connector-curvature="0"
           style="fill:#c6b198;stroke:#000000;stroke-width:3" /><path
           id="path4231"
           d="m 122.79138,2 c 38.53303,0 74.65508,5.5154738 93.4853,42.568111 16.90181,41.531205 10.89126,86.315599 13.46885,130.208119 2.21374,37.68896 7.12189,81.23073 -10.3474,116.15653 -18.37763,36.74469 -64.29939,45.98805 -102.13345,44.63426 C 87.547037,334.50264 51.647766,324.79929 34.875537,297.62441 15.198251,265.74417 24.514098,218.34036 25.943328,182.86704 27.636191,140.84709 14.571407,98.69936 28.363891,57.581512 42.67215,14.92779 81.260723,5.2883289 122.79138,2 Z"
           inkscape:connector-curvature="0"
           style="fill:#6ad7e5" /><path
           id="path4233"
           d="m 130.03852,53.836422 c 6.91826,40.251523 72.65646,29.609016 63.21422,-10.986865 -8.46686,-36.4035326 -65.5135,-26.327076 -63.21422,10.986865"
           inkscape:connector-curvature="0"
           style="fill:#ffffff" /><path
           id="path4235"
           d="m 168.02135,80.094784 c 19.00694,-3.188062 31.168,-18.139812 26.64764,-37.574633 -8.86989,-38.1363601 -68.49108,-27.693892 -66.08177,11.4057 l 2.90259,-0.178858 c -2.19442,-35.612296 52.30183,-45.1571459 60.34668,-10.56804 4.10904,17.666376 -6.83234,31.118557 -24.2962,34.047795 -17.44447,2.925986 -33.04933,-6.069251 -36.06874,-23.636631 l -2.86607,0.492609 c 3.3135,19.278488 20.49919,29.184978 39.41587,26.012058 z"
           inkscape:connector-curvature="0"
           style="fill:#000000" /><path
           id="path4237"
           d="M 50.839962,60.567231 C 59.806641,95.609944 115.86323,86.638115 113.75034,51.486792 111.21871,9.3876207 42.267135,17.511013 50.839962,60.567231"
           inkscape:connector-curvature="0"
           style="fill:#ffffff" /><path
           id="path4239"
           d="M 115.1585,51.40215 C 113.94886,31.286773 97.366407,20.161467 77.948473,22.694896 58.405441,25.244646 45.382574,40.382198 49.45642,60.842705 l 2.767084,-0.550948 C 48.49268,41.554048 60.287063,27.844465 78.313483,25.492585 96.223185,23.155933 111.23924,33.230329 112.34218,51.571472 114.366,85.240918 60.693545,93.385275 52.20663,60.21753 l -2.733337,0.699402 C 58.805027,97.38632 117.38819,88.496802 115.1585,51.40215 Z"
           inkscape:connector-curvature="0"
           style="fill:#000000" /><path
           id="path4241"
           d="m 137.82311,102.89689 c 0.0294,5.23309 1.18794,11.10825 0.19916,16.67548 -1.33475,2.52486 -3.9532,2.79191 -6.21035,3.81221 -3.12145,-0.49002 -5.74628,-2.54148 -6.99805,-5.46373 -0.80111,-6.35432 0.29874,-12.50676 0.50109,-18.863644 z"
           inkscape:connector-curvature="0"
           style="fill:#ffffff" /><path
           id="path4243"
           d="m 136.62594,108.6098 c 0.2011,2.67299 0.27674,3.97109 0.29267,5.49977 0.0201,1.93339 -0.0934,3.62522 -0.37322,5.20049 l 0.15078,-0.43873 c -0.60583,1.146 -1.39277,1.62406 -3.65163,2.42881 -0.10694,0.0381 -0.10694,0.0381 -0.21513,0.0767 -0.7249,0.25896 -1.16438,0.42802 -1.63534,0.64091 l 0.85048,-0.11501 c -2.60906,-0.40959 -4.80238,-2.1225 -5.85186,-4.57251 l 0.1094,0.40301 c -0.33968,-2.69429 -0.3525,-5.43894 -0.12075,-9.0892 0.0596,-0.93821 0.11417,-1.67004 0.24974,-3.40337 0.23593,-3.01657 0.32799,-4.40372 0.38312,-6.135731 l -1.93943,1.386231 12.50816,3.83969 -1.05979,-1.42554 c 0.009,1.54346 0.0785,2.72352 0.3028,5.70449 z m 2.69097,-6.82344 -1.05361,-0.32343 -12.50815,-3.839682 -1.87696,-0.576179 -0.0625,1.962413 c -0.0532,1.670748 -0.14315,3.026348 -0.37551,5.997258 -0.13672,1.74812 -0.19203,2.48937 -0.25284,3.44721 -0.24269,3.82261 -0.22907,6.74081 0.13828,9.65453 l 0.0264,0.20919 0.083,0.19382 c 1.45506,3.39681 4.51287,5.78487 8.14425,6.35494 l 0.44241,0.0695 0.40807,-0.18446 c 0.37723,-0.17052 0.75578,-0.31613 1.40887,-0.54944 0.10578,-0.0377 0.10578,-0.0377 0.2127,-0.0758 2.92544,-1.04223 4.23032,-1.83492 5.29704,-3.85275 l 0.10972,-0.20756 0.0411,-0.23117 c 0.31551,-1.77642 0.44124,-3.6492 0.41928,-5.75637 -0.0168,-1.61378 -0.0951,-2.95743 -0.30096,-5.69357 -0.21881,-2.90839 -0.28626,-4.04766 -0.29439,-5.49626 z"
           inkscape:connector-curvature="0"
           style="fill:#000000" /><ellipse
           ry="10.261733"
           rx="9.4658566"
           cy="55.112835"
           cx="66.237534"
           id="Oval"
           style="fill:#000000" /><ellipse
           ry="2.607919"
           rx="2.231616"
           cy="57.428783"
           cx="70.543098"
           id="ellipse4246"
           style="fill:#ffffff" /><ellipse
           ry="10.261733"
           rx="9.3081875"
           cy="52.391605"
           cx="145.35597"
           id="ellipse4248"
           style="fill:#000000" /><ellipse
           ry="2.607919"
           rx="2.1945927"
           cy="54.707554"
           cx="149.59004"
           id="ellipse4250"
           style="fill:#ffffff" /><path
           id="path4252"
           d="m 110.35446,101.73937 c -4.13003,10.01768 2.3031,30.04985 13.50906,15.27441 -0.80111,-6.35433 0.29874,-12.50677 0.50109,-18.863651 z"
           inkscape:connector-curvature="0"
           style="fill:#ffffff" /><path
           id="path4254"
           d="m 110.05193,119.4117 c 3.45207,6.11168 9.33158,5.9914 15.00674,-1.4915 l 0.36957,-0.48728 -0.0765,-0.60677 c -0.33968,-2.69428 -0.35249,-5.43893 -0.12075,-9.0892 0.0596,-0.93821 0.11417,-1.67004 0.24974,-3.40336 0.23593,-3.01658 0.32799,-4.403723 0.38312,-6.135737 l 0.0636,-1.996536 -1.93506,0.495739 -14.01016,3.589244 -0.72805,0.18652 -0.28645,0.69482 c -2.20205,5.34124 -1.68527,13.34078 1.08424,18.24406 z m 0.67479,-16.21925 14.01015,-3.589248 -1.8715,-1.500797 c -0.0532,1.670747 -0.14315,3.026345 -0.37551,5.997265 -0.13672,1.74811 -0.19203,2.48936 -0.25284,3.4472 -0.24269,3.82261 -0.22906,6.74081 0.13828,9.65453 l 0.29306,-1.09405 c -4.44888,5.86602 -7.68663,5.93225 -10.0043,1.82894 -2.31818,-4.1042 -2.7726,-11.13844 -0.92284,-15.62519 z"
           inkscape:connector-curvature="0"
           style="fill:#000000" /><path
           id="path4256"
           d="m 111.7854,82.867684 c -7.69767,0.656771 -13.989732,9.81707 -9.98738,17.063916 5.30009,9.59857 17.13034,-0.849075 24.49863,0.12969 8.48026,0.17378 15.42853,8.97439 22.23956,1.59082 7.57511,-8.212196 -3.26125,-16.210368 -11.73067,-19.786194 z"
           inkscape:connector-curvature="0"
           style="fill:#f6d2a2" /><path
           id="path4258"
           d="m 100.48497,100.65679 c 1.72007,3.11508 4.21878,4.66426 7.39137,4.84453 2.35243,0.13366 4.7195,-0.40054 8.45858,-1.66809 0.34174,-0.11585 0.66617,-0.22743 1.18853,-0.4082 4.81007,-1.66458 6.68456,-2.12801 8.57568,-1.8768 l 0.16679,0.0127 c 2.23379,0.0458 4.17894,0.63578 7.8005,2.15123 4.14311,1.73368 5.48064,2.19554 7.60004,2.35614 2.98026,0.22582 5.59641,-0.82359 7.97229,-3.39919 4.02,-4.358085 3.81682,-9.157664 0.21315,-13.594478 -2.7378,-3.370761 -7.39818,-6.452291 -12.46292,-8.590649 l -0.30867,-0.13032 -0.33478,0.0134 -25.02014,1.001768 c -9.11866,0.77648 -15.651761,11.300526 -11.24042,19.287909 z m 36.38058,-17.292075 -0.64345,-0.116916 c 4.65078,1.963578 8.91973,4.786288 11.30114,7.718268 2.71724,3.345448 2.85002,6.482161 -0.0896,9.669013 -3.1123,3.37393 -5.27853,3.20979 -12.20916,0.30965 -3.95537,-1.655129 -6.1713,-2.327265 -8.8971,-2.383122 l 0.16678,0.01275 c -2.55394,-0.339254 -4.63043,0.174109 -9.95181,2.015632 -0.51681,0.17885 -0.83635,0.28874 -1.1706,0.40206 -6.96082,2.35972 -10.06924,2.18311 -12.26061,-1.785516 -3.308341,-5.990231 1.81817,-14.248431 8.80177,-14.844277 z"
           inkscape:connector-curvature="0"
           style="fill:#231f20" /><path
           id="path4260"
           d="m 110.81641,82.466465 c -0.57004,-13.346897 24.85545,-15.015658 27.85817,-3.843517 2.99507,11.145946 -26.6064,13.734699 -27.85817,3.843517 -0.999,-7.898506 0,0 0,0 z"
           inkscape:connector-curvature="0"
           style="fill:#000000" /><path
           id="path4262"
           d="m 176.40084,10.795654 c 17.08921,6.339996 29.84806,17.351436 38.53862,34.452038 5.59827,13.770021 8.96217,28.672935 10.70932,45.875949 1.32802,13.076149 1.63679,23.671599 1.76526,47.645809 0.0204,3.80419 0.0304,5.49082 0.0467,7.60318 0.0911,11.80568 0.29917,20.1784 0.78736,28.49153 0.19203,3.2694 0.27506,4.57665 0.77649,12.34453 1.07479,16.65005 1.49825,25.27841 1.57057,35.23083 0.20247,27.86294 -3.33855,49.4289 -12.53858,67.82222 -8.40843,16.81201 -23.15576,28.66527 -42.94197,35.86551 -16.90238,6.15081 -36.99431,8.68507 -57.7963,7.94072 -35.74874,-1.28039 -66.66287,-13.73244 -81.166328,-37.23138 -9.670977,-15.66847 -12.907248,-35.64486 -12.014226,-63.16883 0.24479,-7.54474 0.691858,-14.30514 1.662649,-26.55639 1.101786,-13.90438 1.390164,-17.94092 1.641697,-24.18395 0.18035,-4.4766 0.20137,-9.10876 0.07789,-14.01513 -0.216428,-8.59934 -0.696464,-15.50698 -1.99278,-30.87178 C 23.814988,117.74609 23.29128,108.82801 23.50306,97.697576 23.781648,83.055891 25.705296,70.223879 29.78601,58.058546 36.390524,38.370138 48.482041,24.979542 66.029611,16.375547 80.717038,9.1739475 98.59521,5.4205073 122.90977,3.4953201 145.50332,3.5 162.13574,5.5033816 176.40084,10.795654 Z M 64.708861,13.681921 c -18.253277,8.950021 -30.902193,22.9579 -37.767088,43.422539 -4.185962,12.479095 -6.154129,25.608079 -6.438164,40.536045 -0.214408,11.268515 0.313283,20.254405 2.034229,40.652215 1.291362,15.30608 1.76866,22.17431 1.98311,30.69505 0.121905,4.84367 0.10118,9.41093 -0.0764,13.81888 -0.249325,6.18824 -0.536496,10.20787 -1.634755,24.06775 -0.974303,12.29556 -1.423707,19.0913 -1.670446,26.69608 -0.910433,28.06064 2.410682,48.56073 12.459757,64.84178 15.133844,24.52032 46.963626,37.34118 83.611886,38.65379 21.16208,0.75723 41.63051,-1.82451 58.92952,-8.11966 20.4633,-7.44664 35.82028,-19.7899 44.59919,-37.34266 9.44835,-18.88979 13.06099,-40.89193 12.85539,-69.18601 -0.0729,-10.02695 -0.49837,-18.69707 -1.57672,-35.40228 -0.50096,-7.76063 -0.58388,-9.06616 -0.77542,-12.32717 -0.48459,-8.25187 -0.69154,-16.57977 -0.78228,-28.33879 -0.0163,-2.10922 -0.0263,-3.79428 -0.0467,-7.5961 -0.12898,-24.07043 -0.43959,-34.72921 -1.78057,-47.932862 C 226.85923,73.351224 223.43357,58.174715 217.66603,44.002691 208.57367,26.099865 195.22525,14.579598 177.44433,7.9829794 162.77681,2.541414 145.82864,0.5 122.79138,0.5 98.014506,2.4570973 79.804361,6.2802338 64.708861,13.681921 Z"
           inkscape:connector-curvature="0"
           style="fill:#000000" /></g></g></g></svg>